<svg xmlns="http://www.w3.org/2000/svg" width="24" height="24" viewBox="0 0 24 24" fill="none" preserveAspectRatio="xMinYMid meet">
<path fill-rule="evenodd" clip-rule="evenodd" stroke="#212529" stroke-width="1" stroke-linecap="round" stroke-linejoin="round" d="m 3.5255474,15.525547 v 1.7998 c 0,1.1201 0,1.6798 0.21799,2.1076 0.19174,0.3763 0.49748,0.6829 0.87381,0.8746 0.4274,0.2178 0.9871903,0.218556 2.10511,0.2178 l 13.7519956,-0.0093 m -16.9489056,-4.9905 0,-11.0220973 m -1e-7,11.0220973 3.8534,-3.2111 0.00318,-0.0026 c 0.69708,-0.5809 1.0463,-0.8719 1.42496,-0.9901 0.44733,-0.1397 0.92917,-0.1176 1.3620107,0.062 0.36695,0.1522 0.68875,0.474 1.33225,1.1175 l 0.0064,0.0064 c 0.6535,0.6535 0.9811,0.9812 1.354,1.133 0.4412,0.1798 0.9323,0.1953 1.3845,0.0453 0.3834,-0.1272 0.7335,-0.4331 1.4336,-1.0456 l 4.804566,-4.2770198"/>
</svg>
